<svg width="1440" height="524" viewBox="0 0 1440 524" fill="none" xmlns="http://www.w3.org/2000/svg">
<g filter="url(#filter0_d_495_306)">
<path d="M1.00049 90.4775C1.00049 62.8633 23.3863 40.4775 51.0005 40.4775H1391C1418.61 40.4775 1441 62.8633 1441 90.4775V313.116L744.078 442.131C732.126 444.344 719.872 444.359 707.915 442.176L1.00049 313.116V90.4775Z" fill="url(#paint0_linear_495_306)"/>
<path d="M1.50049 90.4775C1.50049 63.1394 23.6624 40.9775 51.0005 40.9775H1391C1418.34 40.9775 1440.5 63.1394 1440.5 90.4775V312.7L743.987 441.639C732.095 443.841 719.902 443.856 708.005 441.684L1.50049 312.699V90.4775Z" stroke="#340D59"/>
</g>
<defs>
<filter id="filter0_d_495_306" x="-58.9995" y="0.477539" width="1560" height="523.324" filterUnits="userSpaceOnUse" color-interpolation-filters="sRGB">
<feFlood flood-opacity="0" result="BackgroundImageFix"/>
<feColorMatrix in="SourceAlpha" type="matrix" values="0 0 0 0 0 0 0 0 0 0 0 0 0 0 0 0 0 0 127 0" result="hardAlpha"/>
<feOffset dy="20"/>
<feGaussianBlur stdDeviation="30"/>
<feComposite in2="hardAlpha" operator="out"/>
<feColorMatrix type="matrix" values="0 0 0 0 0 0 0 0 0 0 0 0 0 0 0 0 0 0 0.3 0"/>
<feBlend mode="normal" in2="BackgroundImageFix" result="effect1_dropShadow_495_306"/>
<feBlend mode="normal" in="SourceGraphic" in2="effect1_dropShadow_495_306" result="shape"/>
</filter>
<linearGradient id="paint0_linear_495_306" x1="209.422" y1="40.4775" x2="1189.57" y2="1097.99" gradientUnits="userSpaceOnUse">
<stop stop-color="#2E0A51"/>
<stop offset="1" stop-color="#1E0536"/>
</linearGradient>
</defs>
</svg>
