<svg width="95" height="95" viewBox="0 0 95 95" fill="none" xmlns="http://www.w3.org/2000/svg">
<path d="M89.0625 44.5321C89.0685 41.5593 88.3304 38.6324 86.9154 36.0179C85.5005 33.4035 83.4537 31.1848 80.9617 29.564C78.4696 27.9432 75.6115 26.9718 72.648 26.7385C69.6844 26.5052 66.7095 27.0174 63.9945 28.2282C61.2796 29.4391 58.9108 31.3102 57.1042 33.671C55.2976 36.0319 54.1106 38.8073 53.6513 41.7444C53.1921 44.6814 53.4752 47.6868 54.475 50.4864C55.4747 53.286 57.1592 55.7909 59.375 57.7727V86.0946L71.25 80.5015L83.125 86.0946V57.7727C84.9914 56.1084 86.4851 54.0685 87.5083 51.7867C88.5315 49.505 89.0611 47.0328 89.0625 44.5321ZM77.1875 76.7371L71.25 73.9405L65.3125 76.7371V61.3055C69.1495 62.6913 73.3504 62.6913 77.1875 61.3055V76.7371ZM71.25 56.4071C68.9013 56.4071 66.6054 55.7106 64.6526 54.4058C62.6997 53.101 61.1777 51.2463 60.2789 49.0765C59.3801 46.9066 59.1449 44.5189 59.6031 42.2154C60.0613 39.9119 61.1923 37.7959 62.8531 36.1352C64.5138 34.4745 66.6297 33.3435 68.9333 32.8853C71.2368 32.4271 73.6245 32.6622 75.7943 33.561C77.9642 34.4598 79.8188 35.9819 81.1237 37.9347C82.4285 39.8875 83.125 42.1834 83.125 44.5321C83.121 47.6803 81.8687 50.6985 79.6425 52.9246C77.4164 55.1508 74.3982 56.4032 71.25 56.4071Z" fill="white"/>
<path d="M41.5625 5.9375C36.84 5.943 32.3125 7.82143 28.9732 11.1607C25.6339 14.5 23.7555 19.0275 23.75 23.75V41.5625H17.8125C16.2383 41.5641 14.7289 42.1901 13.6158 43.3033C12.5026 44.4164 11.8766 45.9258 11.875 47.5V83.125C11.8766 84.6992 12.5026 86.2086 13.6158 87.3217C14.7289 88.4349 16.2383 89.0609 17.8125 89.0625H50.4688V83.125H17.8125V47.5H44.5312V41.5625H29.6875V23.75C29.6845 20.8051 30.7759 17.9642 32.7498 15.7787C34.7236 13.5932 37.4391 12.2191 40.3691 11.9232C43.299 11.6272 46.2345 12.4305 48.6055 14.1771C50.9765 15.9237 52.614 18.489 53.2 21.375L59.0187 20.1875C58.1887 16.1685 56.0002 12.5578 52.8211 9.96268C49.642 7.36752 45.6663 5.94612 41.5625 5.9375Z" fill="white"/>
</svg>
