<svg width="113" height="113" viewBox="0 0 113 113" fill="none" xmlns="http://www.w3.org/2000/svg">
<path d="M56.4999 76.887C45.247 76.887 36.1128 67.7528 36.1128 56.4999C36.1128 45.247 45.247 36.1128 56.4999 36.1128C67.7528 36.1128 76.887 45.247 76.887 56.4999C76.887 67.7528 67.7528 76.887 56.4999 76.887ZM56.4999 43.1753C49.1549 43.1753 43.1753 49.1549 43.1753 56.4999C43.1753 63.8449 49.1549 69.8245 56.4999 69.8245C63.8449 69.8245 69.8245 63.8449 69.8245 56.4999C69.8245 49.1549 63.8449 43.1753 56.4999 43.1753Z" fill="white"/>
<path d="M56.5 98.9691C38.7966 98.9691 22.082 88.6108 10.5937 70.6249C5.60288 62.8562 5.60288 50.1908 10.5937 42.3749C22.1291 24.3891 38.8437 14.0308 56.5 14.0308C74.1562 14.0308 90.8708 24.3891 102.359 42.3749C107.35 50.1437 107.35 62.8091 102.359 70.6249C90.8708 88.6108 74.1562 98.9691 56.5 98.9691ZM56.5 21.0933C41.292 21.0933 26.7433 30.2274 16.5733 46.1887C13.042 51.6974 13.042 61.3024 16.5733 66.8112C26.7433 82.7724 41.292 91.9066 56.5 91.9066C71.7079 91.9066 86.2566 82.7724 96.4266 66.8112C99.9579 61.3024 99.9579 51.6974 96.4266 46.1887C86.2566 30.2274 71.7079 21.0933 56.5 21.0933Z" fill="white"/>
</svg>
