<svg width="96" height="89" viewBox="0 0 96 89" fill="none" xmlns="http://www.w3.org/2000/svg">
<path d="M56.5524 74.4033C73.3813 74.4033 81.7979 74.4033 87.0238 69.173C92.2541 63.9471 92.2541 55.5305 92.2541 38.7016C92.2541 21.8728 92.2541 13.4561 87.0238 8.23029C81.7979 3 73.3813 3 56.5524 3H38.7016C21.8728 3 13.4561 3 8.23029 8.23029C3 13.4561 3 21.8728 3 38.7016C3 55.5305 3 63.9471 8.23029 69.173C11.1444 72.0916 15.0493 73.3813 20.8508 73.9481" stroke="white" stroke-width="6" stroke-linecap="round" stroke-linejoin="round"/>
<path d="M56.5545 74.4025C51.0386 74.4025 44.9604 76.6339 39.4133 79.5123C30.4968 84.1402 26.0385 86.4563 23.8429 84.9792C21.6472 83.5065 22.0623 78.9322 22.8968 69.7881L23.0842 67.7085" stroke="white" stroke-width="6" stroke-linecap="round"/>
</svg>
