<svg width="118" height="119" viewBox="0 0 118 119" fill="none" xmlns="http://www.w3.org/2000/svg">
<path d="M80.0433 109.579H61.3599C58.6066 109.579 52.6083 108.736 49.4124 105.513L34.5149 93.9108L39.0383 88.0103L54.2799 99.9103C55.5091 101.1 58.6066 102.092 61.3599 102.092H80.0433C84.4683 102.092 89.2374 98.522 90.2208 94.5058L102.119 58.062C102.906 55.8803 102.758 53.897 101.726 52.4591C100.644 50.922 98.6774 50.0295 96.2683 50.0295H76.6016C74.0449 50.0295 71.6849 48.9387 70.0624 47.0545C68.3908 45.1208 67.6533 42.5424 68.0466 39.8649L70.5049 23.9487C71.0949 21.172 69.2266 18.0483 66.5716 17.1558C64.1624 16.2633 61.0649 17.5524 59.9833 19.1391L39.8249 49.3849L33.7283 45.2695L53.8866 15.0237C56.9841 10.3628 63.7691 8.1316 69.0791 10.1645C75.2249 12.1974 79.1583 19.0399 77.7816 25.3866L75.3724 41.0053C75.3233 41.3524 75.3233 41.8483 75.6674 42.2449C75.9133 42.4928 76.2574 42.6416 76.6508 42.6416H96.3174C101.136 42.6416 105.315 44.6745 107.773 48.1949C110.182 51.6162 110.674 56.1283 109.101 60.4916L97.3499 96.5883C95.5308 103.778 87.9591 109.579 80.0433 109.579Z" fill="white"/>
<path d="M26.4517 104.125H21.535C12.4392 104.125 8.01416 99.8112 8.01416 90.9854V42.3937C8.01416 33.5679 12.4392 29.2542 21.535 29.2542H26.4517C35.5475 29.2542 39.9725 33.5679 39.9725 42.3937V90.9854C39.9725 99.8112 35.5475 104.125 26.4517 104.125ZM21.535 36.6917C16.1758 36.6917 15.3892 37.9808 15.3892 42.3937V90.9854C15.3892 95.3983 16.1758 96.6875 21.535 96.6875H26.4517C31.8108 96.6875 32.5975 95.3983 32.5975 90.9854V42.3937C32.5975 37.9808 31.8108 36.6917 26.4517 36.6917H21.535Z" fill="white"/>
</svg>
