<svg width="109" height="109" viewBox="0 0 109 109" fill="none" xmlns="http://www.w3.org/2000/svg">
<path d="M81.7517 35.9231C81.6155 35.9231 81.5247 35.9231 81.3884 35.9231H81.1613C72.5776 35.6506 66.1738 29.0197 66.1738 20.8447C66.1738 12.488 72.9863 5.72095 81.2976 5.72095C89.6088 5.72095 96.4213 12.5335 96.4213 20.8447C96.3759 29.0651 89.9722 35.696 81.7972 35.9685C81.7972 35.923 81.7972 35.9231 81.7517 35.9231ZM81.2976 12.4881C76.7105 12.4881 72.9863 16.2122 72.9863 20.7993C72.9863 25.2956 76.4834 28.9289 80.9797 29.1106C81.0251 29.0652 81.3884 29.0652 81.7972 29.1106C86.2026 28.8835 89.6088 25.2501 89.6543 20.7993C89.6543 16.2122 85.9301 12.4881 81.2976 12.4881Z" fill="white"/>
<path d="M81.7981 69.3976C80.0269 69.3976 78.2556 69.2613 76.4844 68.9434C74.6223 68.6255 73.396 66.8543 73.714 64.9922C74.0319 63.1301 75.8031 61.9038 77.6652 62.2218C83.2515 63.1755 89.1556 62.131 93.1069 59.4968C95.2415 58.0889 96.3769 56.3176 96.3769 54.5463C96.3769 52.7751 95.196 51.0492 93.1069 49.6413C89.1556 47.0072 83.1606 45.9626 77.529 46.9618C75.6669 47.3251 73.8956 46.0534 73.5777 44.1913C73.2598 42.3293 74.4861 40.558 76.3481 40.2401C83.7511 38.923 91.4265 40.3309 96.8765 43.9642C100.873 46.6438 103.189 50.4588 103.189 54.5463C103.189 58.5884 100.919 62.4489 96.8765 65.1739C92.7436 67.8989 87.3844 69.3976 81.7981 69.3976Z" fill="white"/>
<path d="M27.1169 35.9248C27.0714 35.9248 27.026 35.9248 27.026 35.9248C18.851 35.6523 12.4473 29.0214 12.4019 20.8464C12.4019 12.4897 19.2144 5.67725 27.5256 5.67725C35.8369 5.67725 42.6494 12.4898 42.6494 20.801C42.6494 29.0214 36.2456 35.6523 28.0706 35.9248L27.1169 32.5185L27.4348 35.9248C27.3439 35.9248 27.2077 35.9248 27.1169 35.9248ZM27.571 29.1123C27.8435 29.1123 28.0706 29.1122 28.3431 29.1577C32.3852 28.976 35.9277 25.3426 35.9277 20.8464C35.9277 16.2593 32.2035 12.5351 27.6164 12.5351C23.0294 12.5351 19.3052 16.2593 19.3052 20.8464C19.3052 25.2972 22.7569 28.8852 27.1623 29.1577C27.2077 29.1122 27.3894 29.1123 27.571 29.1123Z" fill="white"/>
<path d="M27.068 69.3976C21.4818 69.3976 16.1226 67.8989 11.9897 65.1739C7.99301 62.4943 5.67676 58.6338 5.67676 54.5463C5.67676 50.5043 7.99301 46.6438 11.9897 43.9642C17.4397 40.3309 25.1151 38.923 32.518 40.2401C34.3801 40.558 35.6063 42.3293 35.2884 44.1913C34.9705 46.0534 33.1993 47.3251 31.3372 46.9618C25.7055 45.9626 19.7559 47.0072 15.7593 49.6413C13.6247 51.0492 12.4893 52.7751 12.4893 54.5463C12.4893 56.3176 13.6701 58.0889 15.7593 59.4968C19.7105 62.131 25.6147 63.1755 31.2009 62.2218C33.063 61.9038 34.8343 63.1755 35.1522 64.9922C35.4701 66.8543 34.2438 68.6255 32.3818 68.9434C30.6105 69.2613 28.8393 69.3976 27.068 69.3976Z" fill="white"/>
<path d="M54.5017 69.851C54.3655 69.851 54.2747 69.851 54.1384 69.851H53.9113C45.3276 69.5786 38.9238 62.9477 38.9238 54.7727C38.9238 46.416 45.7363 39.6489 54.0476 39.6489C62.3588 39.6489 69.1713 46.4614 69.1713 54.7727C69.1259 62.9931 62.7222 69.6239 54.5472 69.8964C54.5472 69.851 54.5472 69.851 54.5017 69.851ZM54.0476 46.416C49.4605 46.416 45.7363 50.1402 45.7363 54.7273C45.7363 59.2235 49.2334 62.8569 53.7297 63.0385C53.7751 62.9931 54.1384 62.9931 54.5472 63.0385C58.9526 62.8115 62.3588 59.1781 62.4043 54.7273C62.4043 50.1856 58.6801 46.416 54.0476 46.416Z" fill="white"/>
<path d="M54.498 103.367C49.048 103.367 43.5979 101.959 39.3742 99.0975C35.3775 96.4179 33.0613 92.6029 33.0613 88.5154C33.0613 84.4733 35.3321 80.5674 39.3742 77.8878C47.8671 72.2561 61.1742 72.2561 69.6217 77.8878C73.6184 80.5674 75.9346 84.3824 75.9346 88.4699C75.9346 92.512 73.6638 96.4179 69.6217 99.0975C65.398 101.913 59.948 103.367 54.498 103.367ZM43.1438 83.6104C41.0092 85.0183 39.8738 86.7895 39.8738 88.5608C39.8738 90.332 41.0546 92.0578 43.1438 93.4658C49.275 97.5987 59.6755 97.5987 65.8067 93.4658C67.9413 92.0578 69.0767 90.2866 69.0767 88.5154C69.0767 86.7441 67.8959 85.0183 65.8067 83.6104C59.7209 79.4774 49.3205 79.5229 43.1438 83.6104Z" fill="white"/>
</svg>
