<svg width="34" height="34" viewBox="0 0 34 34" fill="none" xmlns="http://www.w3.org/2000/svg">
<path d="M33.1011 0.898494C32.9156 0.713795 32.6811 0.585916 32.4254 0.529893C32.1696 0.47387 31.9032 0.492032 31.6574 0.582244L1.40738 11.5822C1.1465 11.6812 0.921894 11.8572 0.763399 12.0868C0.604904 12.3164 0.52002 12.5889 0.52002 12.8679C0.52002 13.1469 0.604904 13.4193 0.763399 13.6489C0.921894 13.8786 1.1465 14.0545 1.40738 14.1535L13.2186 18.8697L21.9361 10.1247L23.8749 12.0635L15.1161 20.8222L19.8461 32.6335C19.948 32.8893 20.1244 33.1087 20.3524 33.2631C20.5804 33.4176 20.8495 33.5 21.1249 33.4997C21.4027 33.494 21.6724 33.4043 21.8982 33.2423C22.124 33.0803 22.2954 32.8536 22.3899 32.5922L33.3899 2.34224C33.4836 2.09897 33.5062 1.83409 33.455 1.57846C33.4039 1.32284 33.2812 1.08702 33.1011 0.898494Z" fill="#39076D"/>
</svg>
