<svg width="102" height="100" viewBox="0 0 102 100" fill="none" xmlns="http://www.w3.org/2000/svg">
<path d="M77.414 99.7947C74.9407 99.7947 71.7674 99.0014 67.8007 96.6681L53.8474 88.408C52.4007 87.568 49.6007 87.568 48.2007 88.408L34.2007 96.6681C25.9407 101.568 21.0874 99.6081 18.894 98.0214C16.7474 96.4347 13.3874 92.3747 15.5807 83.0414L18.894 68.7147C19.2674 67.2214 18.5207 64.6547 17.4007 63.5347L5.82738 51.9614C0.0407121 46.1747 0.507379 41.228 1.30071 38.8014C2.09405 36.3747 4.61405 32.0814 12.6407 30.728L27.5274 28.2547C28.9274 28.0214 30.934 26.528 31.5407 25.268L39.8007 8.79471C43.534 1.28138 48.434 0.161377 51.0007 0.161377C53.5674 0.161377 58.4674 1.28138 62.2007 8.79471L70.414 25.2214C71.0674 26.4814 73.074 27.9747 74.474 28.208L89.3607 30.6814C97.434 32.0347 99.954 36.328 100.701 38.7547C101.447 41.1814 101.914 46.128 96.174 51.9147L84.6007 63.5347C83.4807 64.6547 82.7807 67.1747 83.1074 68.7147L86.4207 83.0414C88.5674 92.3747 85.254 96.4347 83.1074 98.0214C81.9407 98.8614 80.074 99.7947 77.414 99.7947ZM51.0007 80.7547C53.2874 80.7547 55.574 81.3147 57.394 82.3881L71.3474 90.648C75.4074 93.0747 77.974 93.0747 78.954 92.3747C79.934 91.6747 80.634 89.2014 79.6074 84.6281L76.294 70.3014C75.4074 66.4281 76.854 61.4347 79.654 58.588L91.2274 47.0147C93.514 44.728 94.5407 42.488 94.074 40.948C93.5607 39.408 91.414 38.148 88.2407 37.6347L73.354 35.1614C69.7607 34.5547 65.8407 31.6614 64.2074 28.3947L55.994 11.968C54.5007 8.98138 52.634 7.20804 51.0007 7.20804C49.3674 7.20804 47.5007 8.98138 46.054 11.968L37.794 28.3947C36.1607 31.6614 32.2407 34.5547 28.6474 35.1614L13.8074 37.6347C10.634 38.148 8.48738 39.408 7.97405 40.948C7.46071 42.488 8.53405 44.7747 10.8207 47.0147L22.394 58.588C25.194 61.3881 26.6407 66.4281 25.754 70.3014L22.4407 84.6281C21.3674 89.2481 22.114 91.6747 23.094 92.3747C24.074 93.0747 26.594 93.028 30.7007 90.648L44.654 82.3881C46.4274 81.3147 48.714 80.7547 51.0007 80.7547Z" fill="white"/>
</svg>
